<?xml version="1.0" standalone="no"?>
<!DOCTYPE svg PUBLIC "-//W3C//DTD SVG 20010904//EN"
 "http://www.w3.org/TR/2001/REC-SVG-20010904/DTD/svg10.dtd">
<svg version="1.0" xmlns="http://www.w3.org/2000/svg"
 width="64.000000pt" height="64.000000pt" viewBox="0 0 64.000000 64.000000"
 preserveAspectRatio="xMidYMid meet">
<metadata>
Created by potrace 1.16, written by Peter Selinger 2001-2019
</metadata>
<g transform="translate(0.000000,64.000000) scale(0.100000,-0.100000)"
fill="#000000" stroke="none">
<path d="M41 332 c-18 -38 -21 -57 -15 -83 4 -19 6 -46 5 -61 -1 -16 2 -28 8
-28 7 0 11 -28 11 -75 l0 -75 50 0 50 0 0 75 c0 43 4 75 10 75 5 0 9 17 8 38
0 22 2 44 6 50 4 7 1 21 -6 31 -13 19 -15 17 -26 -25 -11 -39 -15 -44 -41 -44
-25 0 -31 6 -41 35 -8 24 -8 40 -1 52 9 16 10 14 11 -9 0 -24 4 -28 30 -28 26
0 30 4 30 26 0 15 -13 39 -33 60 l-33 35 -23 -49z"/>
</g>
</svg>
