<?xml version="1.0" standalone="no"?>
<!DOCTYPE svg PUBLIC "-//W3C//DTD SVG 20010904//EN"
 "http://www.w3.org/TR/2001/REC-SVG-20010904/DTD/svg10.dtd">
<svg version="1.0" xmlns="http://www.w3.org/2000/svg"
 width="500.000000pt" height="500.000000pt" viewBox="0 0 500.000000 500.000000"
 preserveAspectRatio="xMidYMid meet">
<metadata>
Created by potrace 1.16, written by Peter Selinger 2001-2019
</metadata>
<g transform="translate(0.000000,500.000000) scale(0.100000,-0.100000)"
fill="#000000" stroke="none">
<path d="M2475 4183 c-166 -17 -313 -59 -441 -127 -378 -201 -607 -580 -605
-1001 1 -109 6 -160 27 -265 l7 -35 -45 43 c-74 72 -93 47 -32 -44 20 -29 53
-68 75 -85 39 -30 59 -60 73 -107 7 -21 4 -21 -57 13 -74 41 -77 41 -77 16 0
-25 71 -84 142 -116 39 -18 64 -37 82 -65 14 -22 24 -40 22 -40 -3 0 -28 9
-56 20 -59 23 -90 26 -90 7 0 -30 111 -93 174 -100 26 -3 51 -19 99 -63 35
-32 63 -60 61 -62 -1 -2 -19 1 -41 7 -54 15 -126 14 -121 -1 9 -30 148 -78
225 -78 25 0 56 -8 75 -20 l33 -20 -84 6 c-78 7 -83 6 -79 -12 6 -31 90 -56
218 -64 77 -5 148 -16 215 -35 94 -27 112 -29 285 -29 172 1 192 3 280 28 65
19 133 30 215 35 90 6 133 14 173 31 73 32 62 46 -34 43 l-79 -3 30 20 c17 11
47 20 70 20 84 1 225 50 225 78 0 12 -10 14 -57 9 -32 -4 -69 -10 -83 -13 -20
-5 -14 5 35 55 48 48 68 62 100 66 78 12 196 79 181 103 -10 17 -38 15 -96 -8
-27 -11 -50 -17 -50 -15 0 17 55 85 69 85 49 0 196 119 174 141 -8 8 -29 1
-77 -26 l-66 -37 10 27 c20 52 34 71 90 122 59 54 107 130 91 146 -13 13 -46
-8 -77 -48 -15 -20 -28 -34 -30 -32 -2 2 3 35 11 73 118 550 -207 1116 -747
1300 -128 43 -326 69 -443 57z m309 -44 c601 -121 991 -725 856 -1329 -32
-142 -34 -144 -53 -50 -19 97 -31 116 -47 74 -14 -34 -5 -139 17 -202 13 -40
13 -45 -8 -82 -13 -22 -24 -39 -25 -37 -1 1 -3 31 -5 67 -3 76 -6 90 -24 90
-17 0 -35 -103 -35 -197 0 -63 -3 -73 -32 -111 -17 -23 -34 -40 -36 -37 -2 2
4 29 13 60 33 115 -6 108 -61 -10 -18 -39 -38 -92 -44 -117 -10 -39 -22 -54
-70 -92 l-58 -45 45 86 c33 64 41 89 33 97 -17 16 -102 -81 -147 -170 -28 -55
-46 -76 -71 -89 -19 -9 -36 -14 -38 -13 -1 2 14 28 34 58 39 58 74 148 65 164
-11 17 -99 -90 -142 -173 -24 -47 -52 -86 -64 -92 -49 -22 -209 -47 -313 -48
-116 -2 -210 9 -307 36 -58 16 -58 16 -93 87 -35 72 -126 196 -144 196 -26 0
14 -110 66 -182 38 -53 37 -54 -10 -34 -27 11 -42 30 -75 93 -58 110 -151 208
-151 158 0 -18 44 -107 72 -147 11 -16 17 -28 14 -28 -3 0 -31 22 -63 48 -49
41 -60 57 -71 100 -18 69 -76 188 -96 195 -12 5 -16 0 -16 -23 0 -16 4 -39 9
-52 4 -13 11 -36 15 -53 7 -27 4 -25 -32 20 -39 50 -39 50 -39 140 0 98 -17
179 -36 172 -14 -4 -26 -86 -20 -134 4 -44 -2 -41 -28 9 -21 42 -21 44 -5 108
18 69 19 198 1 203 -16 3 -33 -44 -43 -113 l-8 -65 -21 65 c-53 167 -57 411
-9 593 96 367 381 667 741 780 185 58 360 66 559 26z"/>
<path d="M2230 3770 l0 -160 126 0 125 0 -3 -377 c-3 -354 -4 -380 -23 -418
-23 -46 -60 -57 -101 -30 -38 24 -56 79 -64 185 l-7 95 -1 -85 c-3 -174 48
-238 170 -213 l48 10 0 -119 0 -118 209 0 c235 0 213 -8 226 80 l7 45 -30 -41
c-45 -62 -80 -74 -216 -74 l-116 0 2 528 3 527 108 3 107 3 0 159 0 160 -50 0
-50 0 0 -100 0 -101 -72 3 -73 3 -3 93 -3 92 -44 0 -45 0 0 -95 0 -95 -65 0
-65 0 0 100 0 100 -50 0 -50 0 0 -160z"/>
<path d="M2754 1305 c-21 -33 -20 -102 2 -126 28 -31 62 -24 80 15 40 83 -34
184 -82 111z"/>
</g>
</svg>
